<mxfile host="app.diagrams.net" modified="2022-07-13T08:27:26.220Z" agent="5.0 (Windows NT 10.0; Win64; x64) AppleWebKit/537.36 (KHTML, like Gecko) Chrome/103.0.0.0 Safari/537.36" etag="W9re6QqaFpr5WYa5g0Yr" version="20.1.1" type="github">
  <diagram id="0wv9A3Gvk9IYi7W_ABdY" name="Page-1">
    <mxGraphModel dx="2628" dy="1625" grid="1" gridSize="10" guides="1" tooltips="1" connect="1" arrows="1" fold="1" page="1" pageScale="1" pageWidth="827" pageHeight="1169" math="0" shadow="0">
      <root>
        <mxCell id="0" />
        <mxCell id="1" parent="0" />
        <mxCell id="aKeOJhJM1Il5jw7VH7JR-4" value="BinaryTree" style="swimlane;fontStyle=1;align=center;verticalAlign=top;childLayout=stackLayout;horizontal=1;startSize=26;horizontalStack=0;resizeParent=1;resizeParentMax=0;resizeLast=0;collapsible=1;marginBottom=0;" vertex="1" parent="1">
          <mxGeometry x="30" y="44" width="280" height="160" as="geometry" />
        </mxCell>
        <mxCell id="aKeOJhJM1Il5jw7VH7JR-5" value="+BinNode* root;" style="text;strokeColor=none;fillColor=none;align=left;verticalAlign=top;spacingLeft=4;spacingRight=4;overflow=hidden;rotatable=0;points=[[0,0.5],[1,0.5]];portConstraint=eastwest;" vertex="1" parent="aKeOJhJM1Il5jw7VH7JR-4">
          <mxGeometry y="26" width="280" height="26" as="geometry" />
        </mxCell>
        <mxCell id="aKeOJhJM1Il5jw7VH7JR-6" value="" style="line;strokeWidth=1;fillColor=none;align=left;verticalAlign=middle;spacingTop=-1;spacingLeft=3;spacingRight=3;rotatable=0;labelPosition=right;points=[];portConstraint=eastwest;" vertex="1" parent="aKeOJhJM1Il5jw7VH7JR-4">
          <mxGeometry y="52" width="280" height="8" as="geometry" />
        </mxCell>
        <mxCell id="aKeOJhJM1Il5jw7VH7JR-7" value="+int compare(const Member* x, const Member* y);&#xa;+BinNode* Search(BinNode* p, const Member *x);&#xa;+BinNode* Add(BinNode* p, const Member *x);&#xa;+int Remove(BinNode **root, const Member *x);&#xa;+void PrintTree(const BinNode* p);&#xa;+void FreeTree(BinNode *p);" style="text;strokeColor=none;fillColor=none;align=left;verticalAlign=top;spacingLeft=4;spacingRight=4;overflow=hidden;rotatable=0;points=[[0,0.5],[1,0.5]];portConstraint=eastwest;" vertex="1" parent="aKeOJhJM1Il5jw7VH7JR-4">
          <mxGeometry y="60" width="280" height="100" as="geometry" />
        </mxCell>
        <mxCell id="aKeOJhJM1Il5jw7VH7JR-8" value="&lt;&lt;struct&gt;&gt;&#xa;BinNode" style="swimlane;fontStyle=1;align=center;verticalAlign=top;childLayout=stackLayout;horizontal=1;startSize=40;horizontalStack=0;resizeParent=1;resizeParentMax=0;resizeLast=0;collapsible=1;marginBottom=0;" vertex="1" parent="1">
          <mxGeometry x="30" y="230" width="190" height="108" as="geometry" />
        </mxCell>
        <mxCell id="aKeOJhJM1Il5jw7VH7JR-9" value="Member data;&#xa;	struct _bnode* left;&#xa;	struct _bnode* right;" style="text;strokeColor=none;fillColor=none;align=left;verticalAlign=top;spacingLeft=4;spacingRight=4;overflow=hidden;rotatable=0;points=[[0,0.5],[1,0.5]];portConstraint=eastwest;" vertex="1" parent="aKeOJhJM1Il5jw7VH7JR-8">
          <mxGeometry y="40" width="190" height="60" as="geometry" />
        </mxCell>
        <mxCell id="aKeOJhJM1Il5jw7VH7JR-10" value="" style="line;strokeWidth=1;fillColor=none;align=left;verticalAlign=middle;spacingTop=-1;spacingLeft=3;spacingRight=3;rotatable=0;labelPosition=right;points=[];portConstraint=eastwest;" vertex="1" parent="aKeOJhJM1Il5jw7VH7JR-8">
          <mxGeometry y="100" width="190" height="8" as="geometry" />
        </mxCell>
        <mxCell id="aKeOJhJM1Il5jw7VH7JR-12" value="&lt;&lt;struct&gt;&gt;&#xa;Member" style="swimlane;fontStyle=1;align=center;verticalAlign=top;childLayout=stackLayout;horizontal=1;startSize=40;horizontalStack=0;resizeParent=1;resizeParentMax=0;resizeLast=0;collapsible=1;marginBottom=0;" vertex="1" parent="1">
          <mxGeometry x="30" y="360" width="190" height="88" as="geometry" />
        </mxCell>
        <mxCell id="aKeOJhJM1Il5jw7VH7JR-13" value="int no;&#xa;	char name[20];" style="text;strokeColor=none;fillColor=none;align=left;verticalAlign=top;spacingLeft=4;spacingRight=4;overflow=hidden;rotatable=0;points=[[0,0.5],[1,0.5]];portConstraint=eastwest;" vertex="1" parent="aKeOJhJM1Il5jw7VH7JR-12">
          <mxGeometry y="40" width="190" height="40" as="geometry" />
        </mxCell>
        <mxCell id="aKeOJhJM1Il5jw7VH7JR-14" value="" style="line;strokeWidth=1;fillColor=none;align=left;verticalAlign=middle;spacingTop=-1;spacingLeft=3;spacingRight=3;rotatable=0;labelPosition=right;points=[];portConstraint=eastwest;" vertex="1" parent="aKeOJhJM1Il5jw7VH7JR-12">
          <mxGeometry y="80" width="190" height="8" as="geometry" />
        </mxCell>
        <mxCell id="aKeOJhJM1Il5jw7VH7JR-18" value="int BinaryTree::compare(const Member* x, const Member* y)" style="swimlane;" vertex="1" parent="1">
          <mxGeometry x="350" y="52" width="310" height="96" as="geometry" />
        </mxCell>
        <mxCell id="aKeOJhJM1Il5jw7VH7JR-19" value="&lt;div&gt;return x-&amp;gt;no &amp;lt;y-&amp;gt;no ? -1 : x-&amp;gt;no &amp;gt; y-&amp;gt;no ? 1 : 0;&lt;/div&gt;" style="rounded=1;whiteSpace=wrap;html=1;absoluteArcSize=1;arcSize=14;strokeWidth=2;" vertex="1" parent="aKeOJhJM1Il5jw7VH7JR-18">
          <mxGeometry x="15" y="38" width="280" height="38" as="geometry" />
        </mxCell>
        <mxCell id="aKeOJhJM1Il5jw7VH7JR-20" value="BinNode* BinaryTree::Search(BinNode* p, const Member* x)" style="swimlane;" vertex="1" parent="1">
          <mxGeometry x="340" y="184" width="450" height="676" as="geometry" />
        </mxCell>
        <mxCell id="aKeOJhJM1Il5jw7VH7JR-21" value="int cond;" style="rounded=1;whiteSpace=wrap;html=1;absoluteArcSize=1;arcSize=14;strokeWidth=2;" vertex="1" parent="aKeOJhJM1Il5jw7VH7JR-20">
          <mxGeometry x="105" y="42" width="100" height="44" as="geometry" />
        </mxCell>
        <mxCell id="aKeOJhJM1Il5jw7VH7JR-23" value="p == NULL" style="strokeWidth=2;html=1;shape=mxgraph.flowchart.decision;whiteSpace=wrap;" vertex="1" parent="aKeOJhJM1Il5jw7VH7JR-20">
          <mxGeometry x="105" y="116" width="100" height="62" as="geometry" />
        </mxCell>
        <mxCell id="aKeOJhJM1Il5jw7VH7JR-22" style="edgeStyle=orthogonalEdgeStyle;rounded=0;orthogonalLoop=1;jettySize=auto;html=1;" edge="1" parent="aKeOJhJM1Il5jw7VH7JR-20" source="aKeOJhJM1Il5jw7VH7JR-21" target="aKeOJhJM1Il5jw7VH7JR-23">
          <mxGeometry relative="1" as="geometry">
            <mxPoint x="155" y="126" as="targetPoint" />
          </mxGeometry>
        </mxCell>
        <mxCell id="aKeOJhJM1Il5jw7VH7JR-25" value="return NULL;" style="rounded=1;whiteSpace=wrap;html=1;absoluteArcSize=1;arcSize=14;strokeWidth=2;" vertex="1" parent="aKeOJhJM1Il5jw7VH7JR-20">
          <mxGeometry x="105" y="216" width="100" height="24" as="geometry" />
        </mxCell>
        <mxCell id="aKeOJhJM1Il5jw7VH7JR-24" value="true" style="edgeStyle=orthogonalEdgeStyle;rounded=0;orthogonalLoop=1;jettySize=auto;html=1;" edge="1" parent="aKeOJhJM1Il5jw7VH7JR-20" source="aKeOJhJM1Il5jw7VH7JR-23" target="aKeOJhJM1Il5jw7VH7JR-25">
          <mxGeometry relative="1" as="geometry">
            <mxPoint x="155" y="216" as="targetPoint" />
          </mxGeometry>
        </mxCell>
        <mxCell id="aKeOJhJM1Il5jw7VH7JR-27" value="(cond = compare(x, &amp;p-&gt;data)) == 0" style="strokeWidth=2;html=1;shape=mxgraph.flowchart.decision;whiteSpace=wrap;" vertex="1" parent="aKeOJhJM1Il5jw7VH7JR-20">
          <mxGeometry x="105" y="286" width="100" height="94" as="geometry" />
        </mxCell>
        <mxCell id="aKeOJhJM1Il5jw7VH7JR-26" value="false" style="edgeStyle=orthogonalEdgeStyle;rounded=0;orthogonalLoop=1;jettySize=auto;html=1;entryX=0.5;entryY=0;entryDx=0;entryDy=0;entryPerimeter=0;" edge="1" parent="aKeOJhJM1Il5jw7VH7JR-20" source="aKeOJhJM1Il5jw7VH7JR-23" target="aKeOJhJM1Il5jw7VH7JR-27">
          <mxGeometry relative="1" as="geometry">
            <mxPoint x="240" y="336" as="targetPoint" />
            <Array as="points">
              <mxPoint x="240" y="147" />
              <mxPoint x="240" y="256" />
              <mxPoint x="155" y="256" />
            </Array>
          </mxGeometry>
        </mxCell>
        <mxCell id="aKeOJhJM1Il5jw7VH7JR-29" value="return p;" style="rounded=1;whiteSpace=wrap;html=1;absoluteArcSize=1;arcSize=14;strokeWidth=2;" vertex="1" parent="aKeOJhJM1Il5jw7VH7JR-20">
          <mxGeometry x="105" y="401" width="100" height="20" as="geometry" />
        </mxCell>
        <mxCell id="aKeOJhJM1Il5jw7VH7JR-28" value="true" style="edgeStyle=orthogonalEdgeStyle;rounded=0;orthogonalLoop=1;jettySize=auto;html=1;" edge="1" parent="aKeOJhJM1Il5jw7VH7JR-20" source="aKeOJhJM1Il5jw7VH7JR-27" target="aKeOJhJM1Il5jw7VH7JR-29">
          <mxGeometry relative="1" as="geometry">
            <mxPoint x="155" y="416" as="targetPoint" />
          </mxGeometry>
        </mxCell>
        <mxCell id="aKeOJhJM1Il5jw7VH7JR-31" value="cond &amp;lt; 0" style="strokeWidth=2;html=1;shape=mxgraph.flowchart.decision;whiteSpace=wrap;" vertex="1" parent="aKeOJhJM1Il5jw7VH7JR-20">
          <mxGeometry x="105" y="456" width="100" height="54" as="geometry" />
        </mxCell>
        <mxCell id="aKeOJhJM1Il5jw7VH7JR-30" value="false" style="edgeStyle=orthogonalEdgeStyle;rounded=0;orthogonalLoop=1;jettySize=auto;html=1;" edge="1" parent="aKeOJhJM1Il5jw7VH7JR-20" source="aKeOJhJM1Il5jw7VH7JR-27" target="aKeOJhJM1Il5jw7VH7JR-31">
          <mxGeometry relative="1" as="geometry">
            <mxPoint x="240" y="496" as="targetPoint" />
            <Array as="points">
              <mxPoint x="230" y="333" />
              <mxPoint x="230" y="436" />
              <mxPoint x="155" y="436" />
            </Array>
          </mxGeometry>
        </mxCell>
        <mxCell id="aKeOJhJM1Il5jw7VH7JR-33" value="Search(p-&gt;left, x);" style="rounded=1;whiteSpace=wrap;html=1;absoluteArcSize=1;arcSize=14;strokeWidth=2;" vertex="1" parent="aKeOJhJM1Il5jw7VH7JR-20">
          <mxGeometry x="105" y="536" width="100" height="34" as="geometry" />
        </mxCell>
        <mxCell id="aKeOJhJM1Il5jw7VH7JR-32" value="true" style="edgeStyle=orthogonalEdgeStyle;rounded=0;orthogonalLoop=1;jettySize=auto;html=1;" edge="1" parent="aKeOJhJM1Il5jw7VH7JR-20" source="aKeOJhJM1Il5jw7VH7JR-31" target="aKeOJhJM1Il5jw7VH7JR-33">
          <mxGeometry relative="1" as="geometry">
            <mxPoint x="155" y="546" as="targetPoint" />
          </mxGeometry>
        </mxCell>
        <mxCell id="aKeOJhJM1Il5jw7VH7JR-36" value="Search(p-&gt;right, x);" style="rounded=1;whiteSpace=wrap;html=1;absoluteArcSize=1;arcSize=14;strokeWidth=2;" vertex="1" parent="aKeOJhJM1Il5jw7VH7JR-20">
          <mxGeometry x="90" y="606" width="120" height="44" as="geometry" />
        </mxCell>
        <mxCell id="aKeOJhJM1Il5jw7VH7JR-34" value="false" style="edgeStyle=orthogonalEdgeStyle;rounded=0;orthogonalLoop=1;jettySize=auto;html=1;exitX=1;exitY=0.5;exitDx=0;exitDy=0;exitPerimeter=0;entryX=0.5;entryY=0;entryDx=0;entryDy=0;entryPerimeter=0;" edge="1" parent="aKeOJhJM1Il5jw7VH7JR-20" source="aKeOJhJM1Il5jw7VH7JR-31" target="aKeOJhJM1Il5jw7VH7JR-36">
          <mxGeometry relative="1" as="geometry">
            <mxPoint x="150" y="616" as="targetPoint" />
            <mxPoint x="230" y="476" as="sourcePoint" />
            <Array as="points">
              <mxPoint x="255" y="483" />
              <mxPoint x="255" y="586" />
              <mxPoint x="150" y="586" />
            </Array>
          </mxGeometry>
        </mxCell>
        <mxCell id="aKeOJhJM1Il5jw7VH7JR-37" value="static BinNode* AllocBinNode(void)" style="swimlane;" vertex="1" parent="1">
          <mxGeometry x="30" y="490" width="200" height="110" as="geometry" />
        </mxCell>
        <mxCell id="aKeOJhJM1Il5jw7VH7JR-38" value="return new BinNode();" style="rounded=1;whiteSpace=wrap;html=1;absoluteArcSize=1;arcSize=14;strokeWidth=2;" vertex="1" parent="aKeOJhJM1Il5jw7VH7JR-37">
          <mxGeometry x="30" y="40" width="140" height="50" as="geometry" />
        </mxCell>
        <mxCell id="aKeOJhJM1Il5jw7VH7JR-39" value="static void SetBinNode(BinNode *n, const Member *x,&#xa;  BinNode *left,  BinNode *right)" style="swimlane;startSize=50;" vertex="1" parent="1">
          <mxGeometry x="20" y="620" width="290" height="200" as="geometry" />
        </mxCell>
        <mxCell id="aKeOJhJM1Il5jw7VH7JR-40" value="n-&gt;data = *x;&#xa;	n-&gt;left = left;&#xa;	n-&gt;right = right;" style="rounded=1;whiteSpace=wrap;html=1;absoluteArcSize=1;arcSize=14;strokeWidth=2;" vertex="1" parent="aKeOJhJM1Il5jw7VH7JR-39">
          <mxGeometry x="90" y="74" width="100" height="100" as="geometry" />
        </mxCell>
        <mxCell id="aKeOJhJM1Il5jw7VH7JR-41" value="BinNode* BinaryTree::Add(BinNode* p, const Member* x)" style="swimlane;" vertex="1" parent="1">
          <mxGeometry x="30" y="900" width="450" height="900" as="geometry" />
        </mxCell>
        <mxCell id="aKeOJhJM1Il5jw7VH7JR-44" style="edgeStyle=orthogonalEdgeStyle;rounded=0;orthogonalLoop=1;jettySize=auto;html=1;entryX=0.5;entryY=0;entryDx=0;entryDy=0;entryPerimeter=0;" edge="1" parent="aKeOJhJM1Il5jw7VH7JR-41" source="aKeOJhJM1Il5jw7VH7JR-42" target="aKeOJhJM1Il5jw7VH7JR-43">
          <mxGeometry relative="1" as="geometry" />
        </mxCell>
        <mxCell id="aKeOJhJM1Il5jw7VH7JR-42" value="int cond;" style="rounded=1;whiteSpace=wrap;html=1;absoluteArcSize=1;arcSize=14;strokeWidth=2;" vertex="1" parent="aKeOJhJM1Il5jw7VH7JR-41">
          <mxGeometry x="30" y="40" width="100" height="40" as="geometry" />
        </mxCell>
        <mxCell id="aKeOJhJM1Il5jw7VH7JR-43" value="p == nullptr" style="strokeWidth=2;html=1;shape=mxgraph.flowchart.decision;whiteSpace=wrap;" vertex="1" parent="aKeOJhJM1Il5jw7VH7JR-41">
          <mxGeometry x="30" y="120" width="100" height="60" as="geometry" />
        </mxCell>
        <mxCell id="aKeOJhJM1Il5jw7VH7JR-46" value="&lt;div&gt;&lt;span style=&quot;&quot;&gt;	&lt;/span&gt;p = AllocBinNode();&lt;/div&gt;&lt;div&gt;&lt;span style=&quot;&quot;&gt;		&lt;/span&gt;SetBinNode(p, x, nullptr, nullptr);&lt;/div&gt;" style="rounded=1;whiteSpace=wrap;html=1;absoluteArcSize=1;arcSize=14;strokeWidth=2;" vertex="1" parent="aKeOJhJM1Il5jw7VH7JR-41">
          <mxGeometry x="30" y="210" width="100" height="60" as="geometry" />
        </mxCell>
        <mxCell id="aKeOJhJM1Il5jw7VH7JR-45" value="true" style="edgeStyle=orthogonalEdgeStyle;rounded=0;orthogonalLoop=1;jettySize=auto;html=1;" edge="1" parent="aKeOJhJM1Il5jw7VH7JR-41" source="aKeOJhJM1Il5jw7VH7JR-43" target="aKeOJhJM1Il5jw7VH7JR-46">
          <mxGeometry relative="1" as="geometry">
            <mxPoint x="80" y="230" as="targetPoint" />
          </mxGeometry>
        </mxCell>
        <mxCell id="aKeOJhJM1Il5jw7VH7JR-48" value="((cond = compare(x, &amp;p-&gt;data)) == 0)" style="strokeWidth=2;html=1;shape=mxgraph.flowchart.decision;whiteSpace=wrap;" vertex="1" parent="aKeOJhJM1Il5jw7VH7JR-41">
          <mxGeometry x="110" y="330" width="100" height="80" as="geometry" />
        </mxCell>
        <mxCell id="aKeOJhJM1Il5jw7VH7JR-47" value="false" style="edgeStyle=orthogonalEdgeStyle;rounded=0;orthogonalLoop=1;jettySize=auto;html=1;exitX=1;exitY=0.5;exitDx=0;exitDy=0;exitPerimeter=0;entryX=0.5;entryY=0;entryDx=0;entryDy=0;entryPerimeter=0;" edge="1" parent="aKeOJhJM1Il5jw7VH7JR-41" source="aKeOJhJM1Il5jw7VH7JR-43" target="aKeOJhJM1Il5jw7VH7JR-48">
          <mxGeometry relative="1" as="geometry">
            <mxPoint x="110" y="333" as="targetPoint" />
            <mxPoint x="160" y="210" as="sourcePoint" />
            <Array as="points">
              <mxPoint x="160" y="150" />
            </Array>
          </mxGeometry>
        </mxCell>
        <mxCell id="aKeOJhJM1Il5jw7VH7JR-49" value="true" style="edgeStyle=orthogonalEdgeStyle;rounded=0;orthogonalLoop=1;jettySize=auto;html=1;entryX=0.5;entryY=0;entryDx=0;entryDy=0;entryPerimeter=0;" edge="1" parent="aKeOJhJM1Il5jw7VH7JR-41" source="aKeOJhJM1Il5jw7VH7JR-48" target="aKeOJhJM1Il5jw7VH7JR-51">
          <mxGeometry relative="1" as="geometry">
            <mxPoint x="160" y="440" as="targetPoint" />
          </mxGeometry>
        </mxCell>
        <mxCell id="aKeOJhJM1Il5jw7VH7JR-62" style="edgeStyle=orthogonalEdgeStyle;rounded=0;orthogonalLoop=1;jettySize=auto;html=1;entryX=0.5;entryY=0;entryDx=0;entryDy=0;" edge="1" parent="aKeOJhJM1Il5jw7VH7JR-41" source="aKeOJhJM1Il5jw7VH7JR-51" target="aKeOJhJM1Il5jw7VH7JR-60">
          <mxGeometry relative="1" as="geometry">
            <Array as="points">
              <mxPoint x="160" y="590" />
              <mxPoint x="90" y="590" />
            </Array>
          </mxGeometry>
        </mxCell>
        <mxCell id="aKeOJhJM1Il5jw7VH7JR-51" value="std::cout &lt;&lt; &quot;이미 들록되어 있습니다.&quot;;" style="strokeWidth=2;html=1;shape=mxgraph.flowchart.document2;whiteSpace=wrap;size=0.25;" vertex="1" parent="aKeOJhJM1Il5jw7VH7JR-41">
          <mxGeometry x="110" y="430" width="100" height="60" as="geometry" />
        </mxCell>
        <mxCell id="aKeOJhJM1Il5jw7VH7JR-53" value="cond &lt; 0" style="strokeWidth=2;html=1;shape=mxgraph.flowchart.decision;whiteSpace=wrap;" vertex="1" parent="aKeOJhJM1Il5jw7VH7JR-41">
          <mxGeometry x="190" y="570" width="100" height="60" as="geometry" />
        </mxCell>
        <mxCell id="aKeOJhJM1Il5jw7VH7JR-52" value="false" style="edgeStyle=orthogonalEdgeStyle;rounded=0;orthogonalLoop=1;jettySize=auto;html=1;exitX=1;exitY=0.5;exitDx=0;exitDy=0;exitPerimeter=0;entryX=0.5;entryY=0;entryDx=0;entryDy=0;entryPerimeter=0;" edge="1" parent="aKeOJhJM1Il5jw7VH7JR-41" source="aKeOJhJM1Il5jw7VH7JR-48" target="aKeOJhJM1Il5jw7VH7JR-53">
          <mxGeometry relative="1" as="geometry">
            <mxPoint x="170" y="560" as="targetPoint" />
            <mxPoint x="220" y="370" as="sourcePoint" />
            <Array as="points">
              <mxPoint x="240" y="370" />
            </Array>
          </mxGeometry>
        </mxCell>
        <mxCell id="aKeOJhJM1Il5jw7VH7JR-61" style="edgeStyle=orthogonalEdgeStyle;rounded=0;orthogonalLoop=1;jettySize=auto;html=1;entryX=0.5;entryY=0;entryDx=0;entryDy=0;" edge="1" parent="aKeOJhJM1Il5jw7VH7JR-41" source="aKeOJhJM1Il5jw7VH7JR-55" target="aKeOJhJM1Il5jw7VH7JR-60">
          <mxGeometry relative="1" as="geometry" />
        </mxCell>
        <mxCell id="aKeOJhJM1Il5jw7VH7JR-55" value="p-&gt;left = Add(p-&gt;left, x);" style="rounded=1;whiteSpace=wrap;html=1;absoluteArcSize=1;arcSize=14;strokeWidth=2;" vertex="1" parent="aKeOJhJM1Il5jw7VH7JR-41">
          <mxGeometry x="190" y="660" width="100" height="50" as="geometry" />
        </mxCell>
        <mxCell id="aKeOJhJM1Il5jw7VH7JR-54" value="true" style="edgeStyle=orthogonalEdgeStyle;rounded=0;orthogonalLoop=1;jettySize=auto;html=1;" edge="1" parent="aKeOJhJM1Il5jw7VH7JR-41" source="aKeOJhJM1Il5jw7VH7JR-53" target="aKeOJhJM1Il5jw7VH7JR-55">
          <mxGeometry relative="1" as="geometry">
            <mxPoint x="240" y="670" as="targetPoint" />
          </mxGeometry>
        </mxCell>
        <mxCell id="aKeOJhJM1Il5jw7VH7JR-58" value="p-&amp;gt;right = Add(p-&amp;gt;right, x);" style="rounded=1;whiteSpace=wrap;html=1;absoluteArcSize=1;arcSize=14;strokeWidth=2;" vertex="1" parent="aKeOJhJM1Il5jw7VH7JR-41">
          <mxGeometry x="330" y="750" width="100" height="60" as="geometry" />
        </mxCell>
        <mxCell id="aKeOJhJM1Il5jw7VH7JR-56" value="false" style="edgeStyle=orthogonalEdgeStyle;rounded=0;orthogonalLoop=1;jettySize=auto;html=1;exitX=1;exitY=0.5;exitDx=0;exitDy=0;exitPerimeter=0;entryX=0.5;entryY=0;entryDx=0;entryDy=0;entryPerimeter=0;" edge="1" parent="aKeOJhJM1Il5jw7VH7JR-41" source="aKeOJhJM1Il5jw7VH7JR-53" target="aKeOJhJM1Il5jw7VH7JR-58">
          <mxGeometry relative="1" as="geometry">
            <mxPoint x="250" y="790" as="targetPoint" />
            <mxPoint x="300" y="600" as="sourcePoint" />
            <Array as="points">
              <mxPoint x="380" y="600" />
            </Array>
          </mxGeometry>
        </mxCell>
        <mxCell id="aKeOJhJM1Il5jw7VH7JR-60" value="return p;" style="rounded=1;whiteSpace=wrap;html=1;absoluteArcSize=1;arcSize=14;strokeWidth=2;" vertex="1" parent="aKeOJhJM1Il5jw7VH7JR-41">
          <mxGeometry x="40" y="850" width="100" height="40" as="geometry" />
        </mxCell>
        <mxCell id="aKeOJhJM1Il5jw7VH7JR-59" style="edgeStyle=orthogonalEdgeStyle;rounded=0;orthogonalLoop=1;jettySize=auto;html=1;" edge="1" parent="aKeOJhJM1Il5jw7VH7JR-41" source="aKeOJhJM1Il5jw7VH7JR-58" target="aKeOJhJM1Il5jw7VH7JR-60">
          <mxGeometry relative="1" as="geometry">
            <mxPoint x="90" y="870" as="targetPoint" />
          </mxGeometry>
        </mxCell>
        <mxCell id="aKeOJhJM1Il5jw7VH7JR-63" style="edgeStyle=orthogonalEdgeStyle;rounded=0;orthogonalLoop=1;jettySize=auto;html=1;" edge="1" parent="1" source="aKeOJhJM1Il5jw7VH7JR-46">
          <mxGeometry relative="1" as="geometry">
            <mxPoint x="120" y="1750" as="targetPoint" />
            <Array as="points">
              <mxPoint x="120" y="1310" />
              <mxPoint x="120" y="1310" />
            </Array>
          </mxGeometry>
        </mxCell>
        <mxCell id="aKeOJhJM1Il5jw7VH7JR-64" value="int BinaryTree::Remove(BinNode** root, const Member* x)" style="swimlane;" vertex="1" parent="1">
          <mxGeometry x="870" y="44" width="510" height="1520" as="geometry" />
        </mxCell>
        <mxCell id="aKeOJhJM1Il5jw7VH7JR-67" style="edgeStyle=orthogonalEdgeStyle;rounded=0;orthogonalLoop=1;jettySize=auto;html=1;entryX=0.5;entryY=0;entryDx=0;entryDy=0;entryPerimeter=0;" edge="1" parent="aKeOJhJM1Il5jw7VH7JR-64" source="aKeOJhJM1Il5jw7VH7JR-65" target="aKeOJhJM1Il5jw7VH7JR-66">
          <mxGeometry relative="1" as="geometry" />
        </mxCell>
        <mxCell id="aKeOJhJM1Il5jw7VH7JR-65" value="BinNode* next,* temp;&#xa;	BinNode** left;&#xa;	BinNode** p = root;" style="rounded=1;whiteSpace=wrap;html=1;absoluteArcSize=1;arcSize=14;strokeWidth=2;" vertex="1" parent="aKeOJhJM1Il5jw7VH7JR-64">
          <mxGeometry x="30" y="50" width="140" height="60" as="geometry" />
        </mxCell>
        <mxCell id="aKeOJhJM1Il5jw7VH7JR-66" value="while (1)" style="strokeWidth=2;html=1;shape=mxgraph.flowchart.loop_limit;whiteSpace=wrap;" vertex="1" parent="aKeOJhJM1Il5jw7VH7JR-64">
          <mxGeometry x="50" y="140" width="100" height="60" as="geometry" />
        </mxCell>
        <mxCell id="aKeOJhJM1Il5jw7VH7JR-69" value="int cond;" style="rounded=1;whiteSpace=wrap;html=1;absoluteArcSize=1;arcSize=14;strokeWidth=2;" vertex="1" parent="aKeOJhJM1Il5jw7VH7JR-64">
          <mxGeometry x="50" y="250" width="100" height="40" as="geometry" />
        </mxCell>
        <mxCell id="aKeOJhJM1Il5jw7VH7JR-68" style="edgeStyle=orthogonalEdgeStyle;rounded=0;orthogonalLoop=1;jettySize=auto;html=1;" edge="1" parent="aKeOJhJM1Il5jw7VH7JR-64" source="aKeOJhJM1Il5jw7VH7JR-66" target="aKeOJhJM1Il5jw7VH7JR-69">
          <mxGeometry relative="1" as="geometry">
            <mxPoint x="100" y="230" as="targetPoint" />
          </mxGeometry>
        </mxCell>
        <mxCell id="aKeOJhJM1Il5jw7VH7JR-71" value="*p == NULL" style="strokeWidth=2;html=1;shape=mxgraph.flowchart.decision;whiteSpace=wrap;" vertex="1" parent="aKeOJhJM1Il5jw7VH7JR-64">
          <mxGeometry x="50" y="320" width="100" height="50" as="geometry" />
        </mxCell>
        <mxCell id="aKeOJhJM1Il5jw7VH7JR-70" style="edgeStyle=orthogonalEdgeStyle;rounded=0;orthogonalLoop=1;jettySize=auto;html=1;" edge="1" parent="aKeOJhJM1Il5jw7VH7JR-64" source="aKeOJhJM1Il5jw7VH7JR-69" target="aKeOJhJM1Il5jw7VH7JR-71">
          <mxGeometry relative="1" as="geometry">
            <mxPoint x="100" y="340" as="targetPoint" />
          </mxGeometry>
        </mxCell>
        <mxCell id="aKeOJhJM1Il5jw7VH7JR-73" value="std::cout &lt;&lt; &quot;등록 안됨&quot;;&#xa;			return -1;" style="rounded=1;whiteSpace=wrap;html=1;absoluteArcSize=1;arcSize=14;strokeWidth=2;" vertex="1" parent="aKeOJhJM1Il5jw7VH7JR-64">
          <mxGeometry x="50" y="410" width="100" height="50" as="geometry" />
        </mxCell>
        <mxCell id="aKeOJhJM1Il5jw7VH7JR-72" value="true" style="edgeStyle=orthogonalEdgeStyle;rounded=0;orthogonalLoop=1;jettySize=auto;html=1;" edge="1" parent="aKeOJhJM1Il5jw7VH7JR-64" source="aKeOJhJM1Il5jw7VH7JR-71" target="aKeOJhJM1Il5jw7VH7JR-73">
          <mxGeometry relative="1" as="geometry">
            <mxPoint x="100" y="400" as="targetPoint" />
          </mxGeometry>
        </mxCell>
        <mxCell id="aKeOJhJM1Il5jw7VH7JR-76" value="((cond = compare(x, &amp;(*p)-&gt;data)) == 0)" style="strokeWidth=2;html=1;shape=mxgraph.flowchart.decision;whiteSpace=wrap;" vertex="1" parent="aKeOJhJM1Il5jw7VH7JR-64">
          <mxGeometry x="170" y="385" width="100" height="100" as="geometry" />
        </mxCell>
        <mxCell id="aKeOJhJM1Il5jw7VH7JR-74" value="false" style="edgeStyle=orthogonalEdgeStyle;rounded=0;orthogonalLoop=1;jettySize=auto;html=1;entryX=0.5;entryY=0;entryDx=0;entryDy=0;entryPerimeter=0;" edge="1" parent="aKeOJhJM1Il5jw7VH7JR-64" source="aKeOJhJM1Il5jw7VH7JR-71" target="aKeOJhJM1Il5jw7VH7JR-76">
          <mxGeometry relative="1" as="geometry">
            <mxPoint x="220" y="400" as="targetPoint" />
          </mxGeometry>
        </mxCell>
        <mxCell id="aKeOJhJM1Il5jw7VH7JR-80" value="break;" style="rounded=1;whiteSpace=wrap;html=1;absoluteArcSize=1;arcSize=14;strokeWidth=2;" vertex="1" parent="aKeOJhJM1Il5jw7VH7JR-64">
          <mxGeometry x="170" y="520" width="100" height="40" as="geometry" />
        </mxCell>
        <mxCell id="aKeOJhJM1Il5jw7VH7JR-79" value="true" style="edgeStyle=orthogonalEdgeStyle;rounded=0;orthogonalLoop=1;jettySize=auto;html=1;" edge="1" parent="aKeOJhJM1Il5jw7VH7JR-64" source="aKeOJhJM1Il5jw7VH7JR-76" target="aKeOJhJM1Il5jw7VH7JR-80">
          <mxGeometry relative="1" as="geometry">
            <mxPoint x="220" y="530" as="targetPoint" />
          </mxGeometry>
        </mxCell>
        <mxCell id="aKeOJhJM1Il5jw7VH7JR-82" value="(cond &lt; 0)" style="strokeWidth=2;html=1;shape=mxgraph.flowchart.decision;whiteSpace=wrap;" vertex="1" parent="aKeOJhJM1Il5jw7VH7JR-64">
          <mxGeometry x="280" y="520" width="100" height="100" as="geometry" />
        </mxCell>
        <mxCell id="aKeOJhJM1Il5jw7VH7JR-81" value="false" style="edgeStyle=orthogonalEdgeStyle;rounded=0;orthogonalLoop=1;jettySize=auto;html=1;entryX=0.5;entryY=0;entryDx=0;entryDy=0;entryPerimeter=0;exitX=1;exitY=0.5;exitDx=0;exitDy=0;exitPerimeter=0;" edge="1" parent="aKeOJhJM1Il5jw7VH7JR-64" source="aKeOJhJM1Il5jw7VH7JR-76" target="aKeOJhJM1Il5jw7VH7JR-82">
          <mxGeometry relative="1" as="geometry">
            <mxPoint x="320" y="550" as="targetPoint" />
            <Array as="points">
              <mxPoint x="330" y="435" />
            </Array>
          </mxGeometry>
        </mxCell>
        <mxCell id="aKeOJhJM1Il5jw7VH7JR-88" style="edgeStyle=orthogonalEdgeStyle;rounded=0;orthogonalLoop=1;jettySize=auto;html=1;entryX=0.5;entryY=1;entryDx=0;entryDy=0;entryPerimeter=0;" edge="1" parent="aKeOJhJM1Il5jw7VH7JR-64" source="aKeOJhJM1Il5jw7VH7JR-84" target="aKeOJhJM1Il5jw7VH7JR-87">
          <mxGeometry relative="1" as="geometry" />
        </mxCell>
        <mxCell id="aKeOJhJM1Il5jw7VH7JR-84" value="p = &amp;((*p)-&gt;left);" style="rounded=1;whiteSpace=wrap;html=1;absoluteArcSize=1;arcSize=14;strokeWidth=2;" vertex="1" parent="aKeOJhJM1Il5jw7VH7JR-64">
          <mxGeometry x="280" y="650" width="100" height="40" as="geometry" />
        </mxCell>
        <mxCell id="aKeOJhJM1Il5jw7VH7JR-83" value="true" style="edgeStyle=orthogonalEdgeStyle;rounded=0;orthogonalLoop=1;jettySize=auto;html=1;" edge="1" parent="aKeOJhJM1Il5jw7VH7JR-64" source="aKeOJhJM1Il5jw7VH7JR-82" target="aKeOJhJM1Il5jw7VH7JR-84">
          <mxGeometry relative="1" as="geometry">
            <mxPoint x="330" y="650" as="targetPoint" />
          </mxGeometry>
        </mxCell>
        <mxCell id="aKeOJhJM1Il5jw7VH7JR-86" value="p = &amp;amp;((*p)-&amp;gt;right);" style="rounded=1;whiteSpace=wrap;html=1;absoluteArcSize=1;arcSize=14;strokeWidth=2;" vertex="1" parent="aKeOJhJM1Il5jw7VH7JR-64">
          <mxGeometry x="400" y="650" width="100" height="40" as="geometry" />
        </mxCell>
        <mxCell id="aKeOJhJM1Il5jw7VH7JR-85" value="false" style="edgeStyle=orthogonalEdgeStyle;rounded=0;orthogonalLoop=1;jettySize=auto;html=1;" edge="1" parent="aKeOJhJM1Il5jw7VH7JR-64" source="aKeOJhJM1Il5jw7VH7JR-82" target="aKeOJhJM1Il5jw7VH7JR-86">
          <mxGeometry relative="1" as="geometry">
            <mxPoint x="450" y="650" as="targetPoint" />
          </mxGeometry>
        </mxCell>
        <mxCell id="aKeOJhJM1Il5jw7VH7JR-87" value="" style="strokeWidth=2;html=1;shape=mxgraph.flowchart.loop_limit;whiteSpace=wrap;rotation=-179;" vertex="1" parent="aKeOJhJM1Il5jw7VH7JR-64">
          <mxGeometry x="50" y="730" width="100" height="60" as="geometry" />
        </mxCell>
        <mxCell id="aKeOJhJM1Il5jw7VH7JR-93" value="(*p)-&gt;left == NULL" style="strokeWidth=2;html=1;shape=mxgraph.flowchart.decision;whiteSpace=wrap;" vertex="1" parent="aKeOJhJM1Il5jw7VH7JR-64">
          <mxGeometry x="50" y="840" width="100" height="80" as="geometry" />
        </mxCell>
        <mxCell id="aKeOJhJM1Il5jw7VH7JR-92" style="edgeStyle=orthogonalEdgeStyle;rounded=0;orthogonalLoop=1;jettySize=auto;html=1;exitX=0.5;exitY=0;exitDx=0;exitDy=0;exitPerimeter=0;" edge="1" parent="aKeOJhJM1Il5jw7VH7JR-64" source="aKeOJhJM1Il5jw7VH7JR-87" target="aKeOJhJM1Il5jw7VH7JR-93">
          <mxGeometry relative="1" as="geometry">
            <mxPoint x="99" y="850" as="targetPoint" />
          </mxGeometry>
        </mxCell>
        <mxCell id="aKeOJhJM1Il5jw7VH7JR-95" value="next = (*p)-&gt;right;" style="rounded=1;whiteSpace=wrap;html=1;absoluteArcSize=1;arcSize=14;strokeWidth=2;" vertex="1" parent="aKeOJhJM1Il5jw7VH7JR-64">
          <mxGeometry x="50" y="960" width="100" height="40" as="geometry" />
        </mxCell>
        <mxCell id="aKeOJhJM1Il5jw7VH7JR-94" value="true" style="edgeStyle=orthogonalEdgeStyle;rounded=0;orthogonalLoop=1;jettySize=auto;html=1;" edge="1" parent="aKeOJhJM1Il5jw7VH7JR-64" source="aKeOJhJM1Il5jw7VH7JR-93" target="aKeOJhJM1Il5jw7VH7JR-95">
          <mxGeometry relative="1" as="geometry">
            <mxPoint x="100" y="960" as="targetPoint" />
          </mxGeometry>
        </mxCell>
        <mxCell id="aKeOJhJM1Il5jw7VH7JR-99" style="edgeStyle=orthogonalEdgeStyle;rounded=0;orthogonalLoop=1;jettySize=auto;html=1;entryX=0.5;entryY=0;entryDx=0;entryDy=0;entryPerimeter=0;" edge="1" parent="aKeOJhJM1Il5jw7VH7JR-64" source="aKeOJhJM1Il5jw7VH7JR-97" target="aKeOJhJM1Il5jw7VH7JR-98">
          <mxGeometry relative="1" as="geometry" />
        </mxCell>
        <mxCell id="aKeOJhJM1Il5jw7VH7JR-97" value="left = &amp;((*p)-&gt;left);" style="rounded=1;whiteSpace=wrap;html=1;absoluteArcSize=1;arcSize=14;strokeWidth=2;" vertex="1" parent="aKeOJhJM1Il5jw7VH7JR-64">
          <mxGeometry x="180" y="960" width="100" height="40" as="geometry" />
        </mxCell>
        <mxCell id="aKeOJhJM1Il5jw7VH7JR-96" value="false" style="edgeStyle=orthogonalEdgeStyle;rounded=0;orthogonalLoop=1;jettySize=auto;html=1;entryX=0.5;entryY=0;entryDx=0;entryDy=0;" edge="1" parent="aKeOJhJM1Il5jw7VH7JR-64" source="aKeOJhJM1Il5jw7VH7JR-93" target="aKeOJhJM1Il5jw7VH7JR-97">
          <mxGeometry relative="1" as="geometry">
            <mxPoint x="210" y="970" as="targetPoint" />
            <Array as="points">
              <mxPoint x="230" y="880" />
            </Array>
          </mxGeometry>
        </mxCell>
        <mxCell id="aKeOJhJM1Il5jw7VH7JR-98" value="(*left)-&amp;gt;right != NULL" style="strokeWidth=2;html=1;shape=mxgraph.flowchart.loop_limit;whiteSpace=wrap;" vertex="1" parent="aKeOJhJM1Il5jw7VH7JR-64">
          <mxGeometry x="180" y="1040" width="100" height="50" as="geometry" />
        </mxCell>
        <mxCell id="aKeOJhJM1Il5jw7VH7JR-101" value="left = &amp;amp;(*left)-&amp;gt;right;" style="rounded=1;whiteSpace=wrap;html=1;absoluteArcSize=1;arcSize=14;strokeWidth=2;" vertex="1" parent="aKeOJhJM1Il5jw7VH7JR-64">
          <mxGeometry x="180" y="1120" width="100" height="40" as="geometry" />
        </mxCell>
        <mxCell id="aKeOJhJM1Il5jw7VH7JR-100" style="edgeStyle=orthogonalEdgeStyle;rounded=0;orthogonalLoop=1;jettySize=auto;html=1;" edge="1" parent="aKeOJhJM1Il5jw7VH7JR-64" source="aKeOJhJM1Il5jw7VH7JR-98" target="aKeOJhJM1Il5jw7VH7JR-101">
          <mxGeometry relative="1" as="geometry">
            <mxPoint x="230" y="1130" as="targetPoint" />
          </mxGeometry>
        </mxCell>
        <mxCell id="aKeOJhJM1Il5jw7VH7JR-103" value="" style="strokeWidth=2;html=1;shape=mxgraph.flowchart.loop_limit;whiteSpace=wrap;rotation=-180;" vertex="1" parent="aKeOJhJM1Il5jw7VH7JR-64">
          <mxGeometry x="180" y="1190" width="100" height="60" as="geometry" />
        </mxCell>
        <mxCell id="aKeOJhJM1Il5jw7VH7JR-102" style="edgeStyle=orthogonalEdgeStyle;rounded=0;orthogonalLoop=1;jettySize=auto;html=1;" edge="1" parent="aKeOJhJM1Il5jw7VH7JR-64" source="aKeOJhJM1Il5jw7VH7JR-101" target="aKeOJhJM1Il5jw7VH7JR-103">
          <mxGeometry relative="1" as="geometry">
            <mxPoint x="230" y="1190" as="targetPoint" />
          </mxGeometry>
        </mxCell>
        <mxCell id="aKeOJhJM1Il5jw7VH7JR-108" style="edgeStyle=orthogonalEdgeStyle;rounded=0;orthogonalLoop=1;jettySize=auto;html=1;entryX=0.5;entryY=0;entryDx=0;entryDy=0;" edge="1" parent="aKeOJhJM1Il5jw7VH7JR-64" source="aKeOJhJM1Il5jw7VH7JR-105" target="aKeOJhJM1Il5jw7VH7JR-107">
          <mxGeometry relative="1" as="geometry" />
        </mxCell>
        <mxCell id="aKeOJhJM1Il5jw7VH7JR-105" value="next = *left;&#xa;		*left = (*left)-&gt;left;&#xa;		next-&gt;left = (*p)-&gt;left;&#xa;		next-&gt;right = (*p)-&gt;right;" style="rounded=1;whiteSpace=wrap;html=1;absoluteArcSize=1;arcSize=14;strokeWidth=2;" vertex="1" parent="aKeOJhJM1Il5jw7VH7JR-64">
          <mxGeometry x="180" y="1280" width="100" height="100" as="geometry" />
        </mxCell>
        <mxCell id="aKeOJhJM1Il5jw7VH7JR-104" style="edgeStyle=orthogonalEdgeStyle;rounded=0;orthogonalLoop=1;jettySize=auto;html=1;" edge="1" parent="aKeOJhJM1Il5jw7VH7JR-64" source="aKeOJhJM1Il5jw7VH7JR-103" target="aKeOJhJM1Il5jw7VH7JR-105">
          <mxGeometry relative="1" as="geometry">
            <mxPoint x="230" y="1310" as="targetPoint" />
          </mxGeometry>
        </mxCell>
        <mxCell id="aKeOJhJM1Il5jw7VH7JR-107" value="temp = *p;&#xa;	*p = next;&#xa;	delete temp;&#xa;	return 0;" style="rounded=1;whiteSpace=wrap;html=1;absoluteArcSize=1;arcSize=14;strokeWidth=2;" vertex="1" parent="aKeOJhJM1Il5jw7VH7JR-64">
          <mxGeometry x="50" y="1438" width="100" height="72" as="geometry" />
        </mxCell>
        <mxCell id="aKeOJhJM1Il5jw7VH7JR-106" style="edgeStyle=orthogonalEdgeStyle;rounded=0;orthogonalLoop=1;jettySize=auto;html=1;" edge="1" parent="aKeOJhJM1Il5jw7VH7JR-64" source="aKeOJhJM1Il5jw7VH7JR-95" target="aKeOJhJM1Il5jw7VH7JR-107">
          <mxGeometry relative="1" as="geometry">
            <mxPoint x="100" y="1420" as="targetPoint" />
          </mxGeometry>
        </mxCell>
        <mxCell id="aKeOJhJM1Il5jw7VH7JR-89" style="edgeStyle=orthogonalEdgeStyle;rounded=0;orthogonalLoop=1;jettySize=auto;html=1;" edge="1" parent="1" source="aKeOJhJM1Il5jw7VH7JR-86">
          <mxGeometry relative="1" as="geometry">
            <mxPoint x="970" y="774" as="targetPoint" />
            <Array as="points">
              <mxPoint x="1320" y="754" />
              <mxPoint x="970" y="754" />
            </Array>
          </mxGeometry>
        </mxCell>
        <mxCell id="aKeOJhJM1Il5jw7VH7JR-90" style="edgeStyle=orthogonalEdgeStyle;rounded=0;orthogonalLoop=1;jettySize=auto;html=1;" edge="1" parent="1" source="aKeOJhJM1Il5jw7VH7JR-80">
          <mxGeometry relative="1" as="geometry">
            <mxPoint x="970" y="774" as="targetPoint" />
          </mxGeometry>
        </mxCell>
        <mxCell id="aKeOJhJM1Il5jw7VH7JR-109" value="void BinaryTree::PrintTree(const BinNode* p)" style="swimlane;" vertex="1" parent="1">
          <mxGeometry x="520" y="910" width="270" height="310" as="geometry" />
        </mxCell>
        <mxCell id="aKeOJhJM1Il5jw7VH7JR-110" value="PrintTree(p-&gt;left);&#xa;		std::cout &lt;&lt; p-&gt;data.no&lt;&lt;&quot; &quot;;&#xa;		std::cout &lt;&lt; p-&gt;data.name&lt;&lt;std::endl;&#xa;		PrintTree(p-&gt;right);" style="rounded=1;whiteSpace=wrap;html=1;absoluteArcSize=1;arcSize=14;strokeWidth=2;" vertex="1" parent="aKeOJhJM1Il5jw7VH7JR-109">
          <mxGeometry x="50" y="180" width="100" height="100" as="geometry" />
        </mxCell>
        <mxCell id="aKeOJhJM1Il5jw7VH7JR-112" value="true" style="edgeStyle=orthogonalEdgeStyle;rounded=0;orthogonalLoop=1;jettySize=auto;html=1;entryX=0.5;entryY=0;entryDx=0;entryDy=0;" edge="1" parent="aKeOJhJM1Il5jw7VH7JR-109" source="aKeOJhJM1Il5jw7VH7JR-111" target="aKeOJhJM1Il5jw7VH7JR-110">
          <mxGeometry relative="1" as="geometry" />
        </mxCell>
        <mxCell id="aKeOJhJM1Il5jw7VH7JR-111" value="(p != NULL)" style="strokeWidth=2;html=1;shape=mxgraph.flowchart.decision;whiteSpace=wrap;" vertex="1" parent="aKeOJhJM1Il5jw7VH7JR-109">
          <mxGeometry x="50" y="50" width="100" height="100" as="geometry" />
        </mxCell>
        <mxCell id="aKeOJhJM1Il5jw7VH7JR-113" value="void BinaryTree::FreeTree(BinNode* p)" style="swimlane;" vertex="1" parent="1">
          <mxGeometry x="530" y="1270" width="240" height="250" as="geometry" />
        </mxCell>
        <mxCell id="aKeOJhJM1Il5jw7VH7JR-114" value="(p != NULL" style="strokeWidth=2;html=1;shape=mxgraph.flowchart.decision;whiteSpace=wrap;" vertex="1" parent="aKeOJhJM1Il5jw7VH7JR-113">
          <mxGeometry x="40" y="40" width="100" height="100" as="geometry" />
        </mxCell>
        <mxCell id="aKeOJhJM1Il5jw7VH7JR-116" value="FreeTree(p-&gt;left);&#xa;		FreeTree(p-&gt;right);&#xa;		delete p;" style="rounded=1;whiteSpace=wrap;html=1;absoluteArcSize=1;arcSize=14;strokeWidth=2;" vertex="1" parent="aKeOJhJM1Il5jw7VH7JR-113">
          <mxGeometry x="40" y="180" width="100" height="60" as="geometry" />
        </mxCell>
        <mxCell id="aKeOJhJM1Il5jw7VH7JR-115" value="true" style="edgeStyle=orthogonalEdgeStyle;rounded=0;orthogonalLoop=1;jettySize=auto;html=1;" edge="1" parent="aKeOJhJM1Il5jw7VH7JR-113" source="aKeOJhJM1Il5jw7VH7JR-114" target="aKeOJhJM1Il5jw7VH7JR-116">
          <mxGeometry relative="1" as="geometry">
            <mxPoint x="120" y="190" as="targetPoint" />
          </mxGeometry>
        </mxCell>
      </root>
    </mxGraphModel>
  </diagram>
</mxfile>
